# Blender 5.1.1
# www.blender.org
mtllib groundcollider.mtl
o colliders
v 4.624350 -0.877762 -31.039869
v -36.743782 -1.046777 19.873690
v 4.300943 -0.886849 7.725466
v -12.059600 -0.886849 27.676216
v -32.609394 -1.046777 20.890923
v -26.827118 -0.840173 23.761559
v -2.562418 -0.883011 20.915461
v -21.638996 -0.877762 25.969078
v -13.495739 -0.877762 27.572346
v -4.940184 -0.886849 22.960905
v 4.966808 -0.877762 -20.302082
v -16.079214 -0.877762 26.684410
v 11.622770 -0.877762 -1.822560
v -6.714903 -0.886849 24.486631
v 5.835325 -0.877762 -11.582654
v -0.676485 -0.886849 12.896053
v -1.344042 -0.886849 13.926744
v 9.325129 -0.877762 1.728383
v -8.280783 -0.886849 25.834618
v 2.414934 -0.886849 9.931532
v -2.278109 -0.883011 18.665012
v 10.544989 -0.877762 -4.880226
v -19.630978 -0.877762 26.428522
v -34.624367 -1.046777 20.184460
v -19.510164 -0.877762 -41.428322
v -32.268379 -0.782546 -41.317642
v -28.960752 -0.877762 -41.068306
v -13.037600 -0.877762 -46.132748
v 4.095663 -0.877762 -37.579170
v -0.572126 -0.877762 -44.837971
v -10.118860 -0.877762 -48.254169
v 4.624350 16.915133 -31.039869
v -36.743782 16.746117 19.873690
v 4.300943 16.906044 7.725466
v -12.059600 16.906044 27.676216
v -32.609394 16.746117 20.890923
v -26.827118 16.952721 23.761559
v -2.562418 16.909883 20.915461
v -21.638996 16.915133 25.969078
v -13.495739 16.915133 27.572346
v -4.940184 16.906046 22.960905
v 4.966808 16.915133 -20.302082
v -16.079214 16.915133 26.684410
v 11.622770 16.915133 -1.822560
v -6.714903 16.906046 24.486631
v 5.835325 16.915133 -11.582654
v -0.676485 16.906046 12.896053
v -1.344042 16.906046 13.926744
v 9.325129 16.915133 1.728383
v -8.280783 16.906046 25.834618
v 2.414934 16.906044 9.931532
v -2.278109 16.909883 18.665012
v 10.544989 16.915133 -4.880226
v -19.630978 16.915133 26.428522
v -34.624367 16.746117 20.184460
v -19.510164 16.915131 -41.428322
v -32.268379 17.010347 -41.317642
v -28.960752 16.915131 -41.068306
v -13.037600 16.915133 -46.132748
v 4.095663 16.915133 -37.579170
v -0.572126 16.915133 -44.837971
v -10.118860 16.915133 -48.254169
vn -0.0381 -0.0000 -0.9993
vn 0.9951 -0.0000 -0.0991
vn -0.2230 -0.0000 0.9748
vn 0.9967 -0.0000 -0.0806
vn -0.6921 -0.0000 -0.7218
vn 0.0719 -0.0000 -0.9974
vn -0.4381 -0.0000 -0.8989
vn -0.8393 -0.0000 -0.5436
vn -0.7665 -0.0000 -0.6422
vn 0.8396 -0.0000 0.5432
vn 0.3369 -0.0000 -0.9415
vn -0.8182 -0.0000 0.5749
vn 0.7601 -0.0000 0.6498
vn 0.8411 -0.0000 -0.5409
vn 0.9431 -0.0000 -0.3324
vn 0.4447 -0.0000 -0.8957
vn -0.5879 -0.0000 -0.8089
vn -0.6519 -0.0000 -0.7583
vn 0.9811 -0.0000 0.1934
vn 0.9995 -0.0000 -0.0319
vn -0.3309 -0.0000 0.9437
vn -0.9921 -0.0000 -0.1253
vn 0.1451 -0.0000 -0.9894
vn 0.6524 -0.0000 0.7579
vn -0.0721 -0.0000 0.9974
vn 0.0752 -0.0000 -0.9972
vn 0.3915 -0.0000 -0.9202
vn 0.3250 -0.0000 -0.9457
vn 0.6521 -0.0000 0.7581
vt 0.765590 0.523955
vt 0.694970 0.536040
vt 0.906902 0.263119
vt 0.914071 0.329118
vt 0.644634 0.027611
vt 0.658802 0.021070
vt 0.928289 0.409260
vt 0.934574 0.458566
vt 0.948977 0.123657
vt 0.944530 0.100323
vt 0.982111 0.293894
vt 0.981965 0.320787
vt 0.983144 0.236461
vt 0.981818 0.262654
vt 0.943638 0.092328
vt 0.958577 0.187748
vt 0.951621 0.140901
vt 0.912000 0.158986
vt 0.934574 0.181725
vt 0.911299 0.519668
vt 0.845860 0.559899
vt 0.950655 0.287506
vt 0.959384 0.238128
vt 0.847974 0.108958
vt 0.865398 0.122369
vt 0.931356 0.206076
vt 0.983144 0.377735
vt 0.982705 0.424329
vt 0.820912 0.548728
vt 0.939437 0.022901
vt 0.936854 0.010839
vt 0.799556 0.051536
vt 0.813874 0.085207
vt 0.557419 0.090774
vt 0.571253 0.082391
vt 0.942935 0.056189
vt 0.942870 0.039071
vt 0.216862 0.990158
vt 0.202271 0.983996
vt 0.743870 0.007754
vt 0.757581 0.015303
vt 0.702498 0.003012
vt 0.712983 0.000000
vt 0.670829 0.543049
vt 0.982057 0.336352
vt 0.981828 0.273528
vt 0.773118 0.023844
vt 0.793936 0.035296
s 0
usemtl groundtexture
f 25/1/1 27/2/1 58/2/1 56/1/1
f 15/3/2 11/4/2 42/4/2 46/3/2
f 8/5/3 23/6/3 54/6/3 39/5/3
f 1/7/4 29/8/4 60/8/4 32/7/4
f 20/9/5 16/10/5 47/10/5 51/9/5
f 12/11/6 23/12/6 54/12/6 43/11/6
f 19/13/7 4/14/7 35/14/7 50/13/7
f 16/10/8 17/15/8 48/15/8 47/10/8
f 18/16/9 3/17/9 34/17/9 49/16/9
f 18/18/10 13/19/10 44/19/10 49/18/10
f 30/20/11 31/21/11 62/21/11 61/20/11
f 15/22/12 22/23/12 53/23/12 46/22/12
f 20/24/13 3/25/13 34/25/13 51/24/13
f 29/8/14 30/20/14 61/20/14 60/8/14
f 13/19/15 22/26/15 53/26/15 44/19/15
f 6/27/16 5/28/16 36/28/16 37/27/16
f 31/21/17 28/29/17 59/29/17 62/21/17
f 10/30/18 14/31/18 45/31/18 41/30/18
f 28/29/17 25/1/17 56/1/17 59/29/17
f 21/32/19 17/33/19 48/33/19 52/32/19
f 11/4/20 1/7/20 32/7/20 42/4/20
f 24/34/21 5/35/21 36/35/21 55/34/21
f 21/36/22 7/37/22 38/37/22 52/36/22
f 24/38/23 2/39/23 33/39/23 55/38/23
f 19/40/24 14/41/24 45/41/24 50/40/24
f 9/42/25 4/43/25 35/43/25 40/42/25
f 27/2/26 26/44/26 57/44/26 58/2/26
f 8/45/27 6/27/27 37/27/27 39/45/27
f 9/46/28 12/11/28 43/11/28 40/46/28
f 10/47/29 7/48/29 38/48/29 41/47/29
