# Blender 5.1.0
# www.blender.org
mtllib ground.mtl
o Ground_02
v 0.904554 -1.168486 36.603790
v 3.321020 -1.168486 31.366409
v 6.496073 -1.168486 34.247631
v 7.661161 -1.168486 32.257671
v 13.215723 -1.168486 29.594330
v 7.091703 -1.168486 33.320686
v 4.752245 -1.168486 35.659744
v -7.970430 -1.168486 36.769062
v -0.160967 -1.168486 36.719654
v -33.359097 -0.958096 8.313192
v -37.706764 -0.958096 9.206478
v -29.603970 -0.798938 34.918327
v -40.398048 -0.958096 7.228053
v -48.178097 25.976507 10.080009
v -32.642853 -0.958096 17.931698
v -44.131897 15.907202 10.134741
v -23.556576 -1.168486 36.713100
v -21.437031 -1.168486 33.458382
v -14.506680 -1.168486 36.677826
v -29.475683 -1.168486 30.632969
v -10.792643 -1.168486 36.697010
v -38.016582 -0.798938 24.279095
v -40.253876 4.206324 12.377773
v -35.455139 -0.958096 14.063116
v -42.839821 5.670203 19.027292
v -43.253662 9.314622 24.243607
v -19.922350 -0.987811 22.765646
v -16.085245 -0.987811 24.656923
v -18.161804 -0.883011 7.680968
v -19.767021 0.172155 6.500304
v -21.857489 -0.877762 9.687799
v -16.674522 -0.883011 6.314435
v -18.670238 -0.884930 8.650899
v -6.449223 -0.886849 13.516636
v -23.989008 -0.877762 10.245613
v -26.232265 1.031106 5.076473
v -26.008566 -0.950221 14.786543
v 1.193415 -1.168486 31.594654
v -17.024521 -0.886849 7.975075
v -20.799829 -0.886849 11.352894
v -3.610497 -0.782546 -16.062498
v 2.997587 -1.168486 29.566879
v -1.851316 -1.168486 36.835373
v -18.365288 -1.168486 36.699497
v 14.090158 -1.168486 12.197611
v -0.964914 -1.168486 30.198559
v -30.768587 -0.708528 -29.349747
v -39.321522 -0.708528 -29.580681
v -50.754250 -0.283877 -20.820433
v -13.499800 -0.877762 -10.879805
v -10.589787 -0.886849 11.561199
v 3.472433 -1.168486 27.527260
v 0.755421 -0.886849 -2.560987
v -41.400581 -0.877762 -3.754114
v -0.111248 -0.886849 -5.161050
v -34.697403 -0.877762 -14.540238
v -48.743591 23.682035 -31.891920
v -12.139355 -0.886849 -4.162358
v 19.420630 -1.168486 -7.134766
v -35.678478 -0.958096 5.016143
v 1.842859 -0.886849 4.343577
v -40.704121 22.534163 -42.565849
v -48.620193 22.645010 -42.491760
v -25.416220 -0.877762 9.531471
v 1.400288 -1.033818 -55.335762
v 20.017031 -1.168486 -8.462086
v -32.929260 1.696892 2.196275
v -24.440300 0.597741 -11.827982
v -48.178097 -0.328980 -2.976432
v -16.423079 -0.877762 -14.341977
v -50.216885 0.217074 -16.430599
v -48.178097 -0.328980 -7.163404
v -36.325024 22.785139 -35.437336
v 6.883345 -0.886849 2.384945
v -15.785598 -0.886849 5.122540
v 14.385809 -1.033818 -33.898666
v -34.078445 1.695208 -2.983047
v -38.684280 -0.708528 -18.812229
v 16.600412 -1.033818 -26.441387
v -20.425327 0.728362 -3.783875
v -42.164169 -0.958096 5.425297
v -12.267853 -0.877762 -12.838906
v -36.741402 0.406974 -6.449292
v -46.127548 22.728703 -47.372528
v 4.318716 -0.989992 -11.366143
v -13.111961 -0.886849 0.020730
v -36.169434 20.306086 -42.606361
v -25.961184 -0.782546 -24.477127
v -34.104946 1.300175 -4.882209
v -26.680878 -0.877762 -19.913662
v -23.677258 -0.782546 -34.272846
v -35.388031 1.310831 0.599374
v -26.044271 -0.782546 -21.853455
v -40.443420 -0.958096 -0.660628
v -31.018583 -0.782546 -35.881542
v -30.674520 -0.708528 -24.708157
v -35.935776 1.138324 -1.325034
v -31.279163 -1.033818 -51.438187
v -36.617580 0.059516 -8.010157
v -33.763779 0.807096 -8.198355
v -15.226074 -1.033818 -64.744186
v 4.624350 -0.877762 -31.039869
v -33.487091 1.695209 0.318539
v -48.178097 -0.958096 -0.448981
v -39.828476 -0.877762 -8.249243
v -31.095264 -0.840173 9.121597
v -32.156471 0.978112 4.854584
v -35.726887 1.312077 -4.038218
v -27.739668 1.149127 -8.660049
v -31.632023 1.370152 -7.777692
v -34.820572 1.301394 2.211185
v -40.518135 -0.877762 -6.389872
v -19.102139 0.132719 -6.485819
v -42.533928 -0.708528 -25.812305
v -18.489079 0.152233 -9.813149
v -52.511856 22.606325 -21.667143
v -40.865093 -0.958096 1.852440
v -35.121185 0.581213 -6.605581
v -32.403267 -0.708528 -28.855791
v -30.883648 -0.877762 -19.095503
v -48.178097 -0.328980 -5.820048
v -27.858307 -0.782546 -26.125462
v -7.706406 -0.782546 -40.464905
v -48.178097 -0.328980 -14.625443
v -15.201377 -0.877762 -13.129618
v -44.254059 23.138227 -34.774635
v 24.230196 -1.168486 1.963012
v 24.574457 -1.168486 -1.094325
v -30.109892 1.695209 -4.415742
v -31.568272 1.695209 -3.988793
v -28.604088 1.695208 -3.569093
v -32.480228 1.451047 -5.111855
v -29.978924 1.695208 -3.007319
v -30.447849 1.695209 0.429285
v -31.121033 1.695208 -1.696187
v -32.670792 1.695208 -1.814165
v -22.805380 0.559170 -8.459567
v -23.918375 1.196548 -4.885029
v -29.488979 1.505198 -7.565239
v -33.003799 1.240982 -7.108018
v -33.187874 1.241914 -6.079131
v -26.121042 1.695209 -4.079271
v -28.811958 1.695208 -5.258647
v -29.048693 1.695208 -6.384224
v -13.044340 -0.886849 -2.047321
v -26.822147 1.695208 -6.550083
v -31.100716 1.695208 -6.084252
v -22.811302 1.389039 1.195556
v -19.160627 0.829109 -0.372826
v -24.251118 1.201729 3.426792
v -25.931911 1.695208 -1.823672
v -29.310349 1.695208 3.057826
v -28.743322 1.695208 -1.586443
v -26.256239 1.697579 2.241187
v -27.027477 1.695209 -1.122042
v -21.298035 1.306110 0.116958
v -20.163572 0.863632 -2.095254
v -21.321283 0.926679 2.037836
v -19.636612 0.780595 1.207103
v -25.102587 1.695208 -2.938072
v -26.064518 1.695208 -2.900889
v -22.739964 0.846748 2.886054
v -23.173109 1.387806 -2.358223
v -23.842051 1.695209 -0.248671
v -27.110579 1.695208 -2.773459
v -27.881077 1.695209 0.447467
v -27.480358 1.695209 -4.441603
v -24.841106 1.695209 -1.507298
v -24.234365 1.332900 1.571318
v -25.697250 1.695209 -0.073932
v -12.510643 -0.886849 2.030257
v -18.474079 0.417592 -2.904560
v -38.609180 23.535831 -33.460392
v -32.544159 1.695208 -3.433724
v -48.178097 -0.407292 2.318047
v -19.770985 -0.877762 7.948060
v 12.451147 -1.033818 -55.298450
v 3.133902 -1.168486 36.476383
v -43.029808 4.429969 28.580704
v -46.635086 25.918766 16.246862
v -51.798389 25.976507 10.080009
v -50.255379 25.976509 16.246862
v -45.645493 25.536861 27.860474
v -50.882835 27.143295 19.690004
v -51.005859 27.818516 24.016169
v -48.801769 28.803944 27.963434
v -53.656456 18.073023 -1.991220
v -53.656456 26.052435 2.708704
v -53.656456 24.575222 -3.803688
v -53.656456 24.575222 -6.813771
v -53.656456 18.073023 -9.869448
v -53.656456 18.073021 -13.133669
v -53.472244 22.606325 -14.881695
v -59.592033 18.073023 1.534035
v -58.002831 26.052435 8.065649
v -59.913994 24.575222 -3.343135
v -60.044151 24.575222 -10.288774
v -58.047630 18.327232 -11.544236
v -59.848389 18.390577 -14.356956
v -58.828064 22.606325 -15.920752
v -59.025848 22.606325 -19.958363
v -53.267792 22.645010 -38.407074
v -56.429359 25.976509 12.799903
v -36.743782 -1.046777 19.873690
v -41.989807 9.914599 24.338144
v -36.088970 1.281726 24.988905
v -41.575966 9.812745 19.121830
v -49.618984 27.743273 19.784542
v -49.742008 28.418493 24.110706
v -35.566570 1.221417 20.193804
v -44.045586 24.699724 19.379738
v -45.457779 26.096794 19.426323
v -43.655224 24.688700 24.103598
v -45.183308 26.662554 24.087543
v -44.778336 25.646805 24.020506
v -33.170414 -0.798938 26.431387
v -30.714943 -1.024299 27.063919
v 4.300943 -0.886849 7.725466
v -12.059600 -0.886849 27.676216
v -32.609394 -1.046777 20.890923
v -26.827118 -0.840173 23.761559
v 9.421160 -0.936351 -26.918148
v -2.562418 -0.883011 20.915461
v -21.638996 -0.877762 25.969078
v -13.495739 -0.877762 27.572346
v -4.940184 -0.886849 22.960905
v 4.966808 -0.877762 -20.302082
v -16.079214 -0.877762 26.684410
v 11.622770 -0.877762 -1.822560
v -6.714903 -0.886849 24.486631
v 5.835325 -0.877762 -11.582654
v -0.676485 -0.886849 12.896053
v -1.344042 -0.886849 13.926744
v 9.325129 -0.877762 1.728383
v -8.280783 -0.886849 25.834618
v 2.414934 -0.886849 9.931532
v -2.278109 -0.883011 18.665012
v 10.544989 -0.877762 -4.880226
v -19.630978 -0.877762 26.428522
v -11.537260 -1.168486 31.594383
v 18.000563 -1.168486 -3.266335
v 1.400982 -1.168486 21.358490
v 13.066843 -1.168486 -8.098957
v 11.698202 -1.168486 6.151994
v 14.689344 -1.168486 2.902941
v -32.150631 -0.592320 26.457890
v -7.291368 -1.168486 29.703215
v -4.931000 -1.168486 27.906048
v -28.007557 -1.168486 28.467506
v -2.679039 -1.168486 26.101847
v 17.830427 -1.168486 -1.703682
v -21.368330 -1.168486 31.201717
v -14.951422 -1.168486 32.122517
v -18.558994 -1.168486 31.604847
v 16.159769 -1.168486 -4.545347
v 6.038214 -1.168486 11.745622
v 26.180014 -1.188499 -10.281199
v 24.328794 -1.188499 -22.067978
v 12.369089 -1.168486 -11.347441
v -30.162336 -2.214493 27.329668
v -31.843401 -2.318295 21.256029
v 5.064703 -2.214493 -29.925781
v 2.422207 -2.214494 9.572699
v 4.309927 -2.214493 7.771774
v -8.230824 -2.214494 25.880926
v -2.228148 -2.214493 18.711323
v 10.689188 -2.214494 -4.849344
v -27.070839 -2.318295 23.613581
v -12.006414 -2.214493 27.725517
v 5.111578 -2.214494 -20.921017
v -6.664408 -2.214494 24.533436
v 5.313490 -2.214494 -19.819624
v -0.659597 -2.214494 12.858528
v 11.721296 -2.214494 -1.785084
v -21.594166 -2.214494 26.010633
v -4.890224 -2.214494 23.007214
v 9.397615 -2.214493 1.774693
v -2.512461 -2.214494 20.961769
v 5.965071 -2.214493 -11.565063
v -1.314375 -2.214493 13.973054
v -13.445780 -2.214493 27.618652
v -16.029255 -2.214493 26.730721
v -19.581018 -2.214493 26.474831
v 12.149790 -2.214493 6.198303
v -28.041653 -2.214493 28.435902
v -7.291368 -2.214493 29.703215
v -14.951422 -2.214493 32.122517
v -3.088446 -2.214493 26.429852
v -11.537260 -2.214493 31.594383
v -18.558994 -2.214493 31.604843
v -21.418289 -2.214493 31.155411
v 0.631262 -2.214494 21.358490
v 13.540567 -2.214493 -8.069279
v -0.169371 -2.113677 24.091179
v -2.269632 -2.214494 25.773842
v 4.276335 -2.214494 13.206985
v 17.924246 -2.214494 -3.223897
v 15.880602 -2.214494 -4.508550
v 15.028387 -2.214493 2.949250
v 17.896330 -2.214494 -1.657373
v -4.931000 -2.214493 27.906048
v 13.127886 -2.214493 -11.322681
v 10.217558 -2.214494 -24.688095
v 11.780481 -2.214493 -17.358910
v -34.624367 -1.046777 20.184460
v -34.595062 0.215975 25.398760
v -35.051113 20.749491 -51.393318
v -5.364458 -1.033818 -55.424706
v 1.731833 -1.033818 -53.931522
v 8.008432 -1.033818 -51.370239
v 9.998835 -1.033818 -39.110947
v -22.784977 -1.033818 -49.687164
v -19.510164 -0.877762 -41.428322
v -12.825953 -1.033818 -56.994751
v -32.268379 -0.782546 -41.317642
v -33.687180 -0.883771 -47.488834
v -15.295295 -1.033818 -55.182831
v -35.868340 20.226595 -48.392815
v -29.966959 -1.033818 -47.863762
v -28.960752 -0.877762 -41.068306
v -13.037600 -0.877762 -46.132748
v 4.095663 -0.877762 -37.579170
v -0.572126 -0.877762 -44.837971
v -10.118860 -0.877762 -48.254169
v 1.981682 -2.096351 -54.065804
v 3.565969 -2.096351 -47.355614
v -19.260315 -2.096350 -41.562603
v -15.093221 -2.096351 -48.718082
v -12.787751 -2.096351 -46.267029
v 10.304815 -2.096350 -39.245228
v 4.345510 -2.096350 -37.713451
v -5.114609 -2.096351 -55.558987
v 8.258280 -2.096351 -51.504520
v -22.535128 -2.096351 -49.821445
v -32.018532 -2.096350 -41.451923
v -33.437332 -2.096351 -47.623116
v -15.045446 -2.096351 -55.317112
v -28.755823 -2.096351 -47.998043
v -27.449862 -2.096350 -41.202587
v -12.576105 -2.096352 -57.129032
v -0.322277 -2.096351 -44.972252
v -9.869011 -2.096351 -48.388451
v -17.598907 -2.096350 -42.770157
v -31.986320 4.780811 -41.416889
v -33.405121 4.546350 -47.588081
v -31.042208 0.112237 -47.847206
v -30.083509 0.069515 -41.258976
v 10.741621 -1.885290 -23.847395
v 12.358000 -1.927554 -15.379488
v 0.311462 -1.081892 24.188133
v -42.404190 23.185675 -50.661068
v -46.603310 23.272234 -46.662395
v -41.703449 23.681124 -43.150166
v -36.174297 21.581865 -47.843872
v -34.579330 19.847546 -47.971661
v -35.092789 20.974873 -47.949341
v -34.528599 19.448460 -41.957169
v -36.175270 21.480427 -42.240437
v -35.117043 20.656008 -42.062695
v -33.344269 -0.218503 20.885399
v -31.419218 -0.687469 26.696823
v -52.101826 17.266289 -21.469614
v -50.986347 8.001172 -21.257935
v -47.985306 5.636970 -1.245873
v -52.378414 13.780035 -1.631433
v -51.008827 9.722170 2.519904
v -52.378414 19.879665 2.617568
v -49.118713 8.996727 -3.403884
v -51.891846 18.765343 -3.610698
v -50.522259 8.996726 -6.333516
v -51.891846 18.765343 -6.581946
v -50.259972 5.636970 -8.561647
v -52.378414 13.780034 -9.238157
v -50.259972 5.636970 -13.854627
v -52.378414 13.780034 -13.481683
v -51.222885 8.243279 -15.630263
v -52.712803 17.383156 -15.243036
v -15.341162 -0.886849 5.779001
v -9.047449 -0.886849 8.764421
v -48.306374 9.217348 4.214379
v -44.199745 8.017665 6.918815
v -41.829842 7.896543 9.289908
v -43.598801 14.107643 19.142975
v -42.716774 14.761760 13.871093
v -43.393990 7.723098 -27.546659
v -49.748917 8.207328 -24.212019
v -49.320175 16.780329 -26.444939
v -43.733871 15.895967 -29.106604
v -42.653790 4.564447 -31.310118
v -35.476139 5.570757 -32.137234
v -33.543766 9.558465 -32.390213
v -43.716278 13.243692 -32.428913
v -36.293667 14.010793 -33.509216
v -34.701252 15.919516 -33.658344
v -32.770893 8.467340 -38.169312
v -33.387787 5.268845 -41.687439
v -34.798004 12.892312 -42.153309
v -34.513855 13.527816 -40.444881
vn -0.0000 1.0000 -0.0000
vn -0.0718 0.0319 0.9969
vn -0.3963 -0.0067 0.9181
vn 0.4871 0.7838 -0.3851
vn -0.0009 1.0000 0.0003
vn -0.3475 0.8645 0.3631
vn 0.0853 0.9929 -0.0831
vn 0.0023 1.0000 -0.0015
vn 0.1092 0.9940 -0.0086
vn 0.8019 0.4168 0.4280
vn -0.4069 -0.0000 -0.9135
vn -0.3250 0.0206 0.9455
vn -0.0089 0.9999 0.0120
vn 0.3213 0.8801 0.3497
vn -0.2088 0.8845 0.4172
vn 0.0040 1.0000 0.0039
vn 0.1420 -0.0000 -0.9899
vn 0.0030 1.0000 0.0036
vn -0.0203 0.9996 0.0215
vn 0.0821 0.9460 0.3137
vn -0.0230 0.9835 -0.1793
vn 0.2646 0.9533 0.1457
vn 0.4380 0.0493 0.8976
vn -0.0042 0.9998 0.0182
vn 0.0078 1.0000 -0.0026
vn -0.8130 0.5030 -0.2932
vn -0.0019 1.0000 0.0087
vn 0.0051 1.0000 0.0056
vn -0.0002 1.0000 0.0002
vn 0.0259 0.9995 -0.0204
vn 0.0005 1.0000 -0.0002
vn -0.4436 -0.0135 0.8961
vn 0.0996 0.8054 0.5843
vn -0.7088 -0.2962 -0.6402
vn -0.0014 1.0000 0.0006
vn -0.0552 0.9984 0.0115
vn 0.2087 0.9667 0.1479
vn 0.1517 0.9838 -0.0953
vn 0.1700 0.9854 -0.0098
vn 0.9872 0.1075 0.1182
vn 0.1622 0.9867 0.0053
vn 0.0003 0.9994 0.0350
vn -0.1467 0.3074 0.9402
vn -0.0333 0.9217 0.3864
vn 0.0039 1.0000 0.0050
vn 0.4202 0.8604 -0.2884
vn -0.0005 0.9999 -0.0136
vn -0.3586 0.9333 0.0184
vn -0.0069 0.9999 -0.0142
vn 0.1009 0.1271 0.9867
vn -0.3796 0.9250 0.0155
vn -0.0425 0.9800 -0.1945
vn -0.5876 -0.0314 -0.8085
vn 0.0807 0.9967 -0.0000
vn -0.1014 0.9839 -0.1470
vn 0.0455 0.9920 0.1175
vn -0.0168 0.9997 -0.0156
vn 0.2782 0.9569 -0.0832
vn -0.2950 0.9410 -0.1658
vn 0.1801 0.9650 0.1907
vn -0.1961 0.9784 0.0654
vn 0.0024 1.0000 -0.0029
vn 0.0044 0.9996 0.0267
vn -0.7936 -0.0545 0.6060
vn 0.0179 0.9997 0.0139
vn -0.6781 -0.1001 -0.7282
vn 0.2400 0.9702 -0.0336
vn -0.9505 -0.2684 0.1565
vn 0.0673 0.9754 -0.2097
vn -0.0000 -1.0000 -0.0000
vn -0.0728 0.9973 0.0072
vn 0.1269 0.9904 0.0543
vn 0.0089 1.0000 -0.0033
vn 0.0726 0.9972 0.0161
vn 0.0662 0.9978 0.0049
vn -0.0638 0.9976 -0.0276
vn -0.2593 0.9423 -0.2115
vn 0.1197 0.9887 -0.0905
vn 0.0045 1.0000 0.0051
vn 0.0114 0.9998 -0.0138
vn -0.1288 0.9537 -0.2719
vn 0.0340 0.9909 0.1301
vn -0.2577 0.9627 -0.0831
vn 0.1015 0.9945 0.0245
vn -0.1831 0.9786 -0.0938
vn 0.0013 0.9999 0.0171
vn 0.0226 0.9996 0.0185
vn -0.2546 0.9433 -0.2131
vn -0.2546 0.9366 -0.2406
vn 0.1170 0.9732 -0.1980
vn -0.0142 0.9999 0.0043
vn 0.2751 0.9534 -0.1241
vn -0.3188 0.9418 -0.1066
vn -0.0962 0.9951 -0.0215
vn -0.2519 0.9668 0.0425
vn 0.0254 0.9996 0.0159
vn 0.0237 0.9997 -0.0051
vn -0.2607 0.9419 -0.2119
vn 0.1608 0.9754 0.1506
vn 0.8819 0.3497 0.3162
vn 0.0129 0.9936 -0.1123
vn 0.2172 0.9722 -0.0877
vn -0.3458 0.9251 -0.1569
vn -0.1656 0.9820 -0.0912
vn -0.2116 0.9553 -0.2063
vn 0.1233 0.9812 -0.1484
vn 0.0161 0.9743 -0.2246
vn 0.0003 1.0000 -0.0005
vn 0.1873 0.9634 -0.1918
vn -0.0792 0.9762 -0.2019
vn 0.1721 0.9763 -0.1309
vn 0.1761 0.9771 -0.1194
vn 0.0590 0.9798 0.1909
vn -0.0220 0.9883 -0.1508
vn -0.1510 0.9408 -0.3034
vn 0.0142 0.9996 0.0244
vn -0.1638 0.9861 0.0293
vn 0.9202 0.0463 0.3887
vn 0.0414 0.9991 0.0033
vn 0.0034 1.0000 -0.0065
vn 0.1889 0.9704 -0.1502
vn 0.0283 0.9673 0.2519
vn 0.1857 0.9775 -0.1003
vn 0.1738 0.9778 -0.1173
vn 0.2043 0.9728 -0.1096
vn 0.1138 0.9864 -0.1182
vn 0.1255 0.9858 -0.1120
vn 0.1842 0.9784 -0.0941
vn -0.0166 0.9374 0.3478
vn 0.0888 0.9924 0.0854
vn 0.1697 0.9528 0.2516
vn -0.0003 1.0000 -0.0011
vn 0.0375 0.9576 0.2855
vn 0.2991 0.9415 -0.1553
vn 0.1848 0.9610 0.2058
vn 0.3251 0.9445 0.0465
vn 0.9037 0.3638 -0.2257
vn 0.0080 1.0000 0.0027
vn 0.9829 0.1124 0.1460
vn 0.9534 0.1390 0.2679
vn 0.1126 0.9719 -0.2067
vn 0.4918 0.8518 -0.1802
vn 0.1448 0.0642 -0.9874
vn 0.3565 0.3062 -0.8827
vn 0.9964 0.0764 -0.0356
vn 0.6094 0.2251 0.7602
vn 0.9770 0.0297 -0.2111
vn 0.9596 0.1572 -0.2333
vn 0.9584 0.2853 -0.0000
vn 0.0854 0.9959 -0.0283
vn 0.9191 0.1703 0.3555
vn -0.5611 0.5130 -0.6496
vn 0.2783 0.4448 0.8513
vn 0.4107 0.3491 -0.8423
vn 0.0556 0.9984 -0.0061
vn -0.1689 0.3692 0.9139
vn 0.8833 0.2418 -0.4016
vn -0.0151 0.9951 -0.0975
vn 0.0090 0.9999 0.0100
vn -0.4146 0.8973 -0.1518
vn 0.1601 0.0029 -0.9871
vn 0.8175 0.5720 0.0672
vn 0.7190 0.6739 0.1697
vn -0.1849 -0.0740 0.9800
vn 0.9220 0.3742 -0.0997
vn 0.6803 0.7317 -0.0419
vn 0.0199 0.0210 -0.9996
vn 0.9904 0.1381 0.0011
vn 0.3552 0.9252 -0.1337
vn -0.0127 0.1817 -0.9833
vn -0.0731 0.0072 0.9973
vn -0.0289 -0.0842 0.9960
vn 0.3892 0.1654 -0.9062
vn -0.3794 0.9209 0.0892
vn 0.9913 0.0415 0.1252
vn 0.8159 0.0732 -0.5736
vn -0.0335 0.9993 0.0155
vn 0.0109 0.9999 -0.0003
vn 0.0027 1.0000 0.0025
vn 0.9426 0.0773 -0.3249
vn 0.9834 0.1588 -0.0881
vn -0.0011 1.0000 0.0006
vn 0.7637 0.0457 0.6439
vn 0.4615 0.0141 -0.8870
vn -0.6253 -0.0000 -0.7804
vn 0.1487 0.0183 -0.9887
vn -0.6058 -0.0000 -0.7956
vn 0.0394 0.9989 0.0267
vn -0.9255 -0.3474 0.1511
vn 0.8773 0.4032 -0.2603
vn 0.0056 0.9999 0.0144
vn 0.7081 -0.0979 0.6993
vn 0.9774 0.2104 -0.0193
vn -0.7072 0.6255 -0.3297
vn -0.1529 -0.0000 -0.9882
vn 0.0186 0.9984 -0.0542
vn 0.0001 1.0000 -0.0008
vn 0.6512 0.0512 0.7572
vn -0.5466 0.1242 0.8281
vn -0.8234 -0.1832 -0.5371
vn -0.0729 0.0329 0.9968
vn -0.9980 0.0023 -0.0632
vn 0.0114 0.9992 -0.0392
vn 0.9663 0.1867 -0.1771
vn -0.0000 1.0000 -0.0005
vn 0.6514 0.0512 0.7570
vn 0.0120 0.9999 -0.0112
vn -0.0099 0.9999 -0.0078
vn 0.3802 0.0192 -0.9247
vn -0.2238 0.0241 0.9743
vn -0.0015 1.0000 -0.0007
vn -0.8540 -0.4994 0.1459
vn 0.8364 0.0705 0.5436
vn 0.6513 0.0508 0.7571
vn 0.7259 -0.0760 0.6836
vn 0.3148 0.9465 -0.0711
vn -0.0022 0.9999 0.0148
vn 0.6466 0.7416 -0.1785
vn -0.1422 0.6008 0.7866
vn -0.3481 0.1530 0.9249
vn 0.5705 0.8197 0.0518
vn 0.4245 0.9049 0.0305
vn -0.5717 0.1832 -0.7997
vn 0.0099 0.9998 -0.0197
vn -0.0040 0.9999 -0.0107
vn -0.0216 0.9998 0.0011
vn 0.0025 0.9998 -0.0197
vn -0.0068 0.9546 0.2979
vn -0.2933 -0.9469 0.1316
vn -0.0036 0.9999 0.0107
vn -0.2029 -0.1696 0.9644
vn 0.8963 0.1329 0.4231
vn 0.9589 0.1368 -0.2487
vn 0.5912 0.0372 0.8057
vn 0.0389 0.9991 -0.0143
vn -0.3701 -0.2016 0.9069
vn 0.0049 0.9999 -0.0137
vn -0.0073 0.9999 -0.0100
vn 0.9696 0.2302 -0.0826
vn 0.3320 0.1703 -0.9278
vn 0.2621 0.0585 0.9633
vn -0.0407 0.0804 -0.9959
vn 0.8193 0.2260 -0.5269
vn -0.8965 -0.4425 -0.0226
vn 0.0113 0.9999 -0.0059
vn -0.1241 -0.0274 -0.9919
vn -0.0420 0.0390 0.9984
vn 0.8919 0.4179 -0.1725
vn 0.6901 0.7157 -0.1074
vn 0.6312 0.7669 -0.1162
vn -0.0716 0.9843 0.1614
vn -0.7507 0.6427 0.1528
vn 0.0157 0.9826 -0.1850
vn -0.8633 0.2383 0.4449
vn 0.0085 1.0000 -0.0028
vn 0.1433 0.9757 0.1657
vn 0.2851 0.8942 0.3451
vn -0.5317 -0.5141 0.6731
vn 0.1349 0.3980 -0.9074
vn 0.3527 0.1788 -0.9185
vn -0.4216 -0.1270 0.8978
vn -0.3661 -0.2785 0.8879
vn 0.9038 0.4274 0.0238
vn 0.5550 0.8312 0.0316
vn 0.0253 0.5597 -0.8283
vn 0.2387 -0.0123 -0.9710
vn 0.9860 0.1187 -0.1173
vn 0.2315 0.9601 -0.1568
vn -0.2744 -0.0003 0.9616
vn -0.0553 0.0697 0.9960
vn -0.2165 0.4763 0.8523
vn 0.1154 0.9924 0.0418
vn 0.3180 0.2761 -0.9070
vn 0.9442 0.3295 -0.0000
vn 0.9789 0.2044 -0.0002
vn 0.9521 0.2544 -0.1694
vn 0.9678 0.2518 -0.0000
vn 0.8420 0.2112 -0.4964
vn 0.9316 0.1647 -0.3241
vn 0.9568 0.2906 -0.0000
vn 0.9538 0.1970 -0.2269
vn 0.9341 0.1587 0.3197
vn 0.7750 0.3279 0.5403
vn 0.9161 0.2151 -0.3383
vn 0.9537 0.3000 -0.0214
vn 0.9880 0.1392 0.0664
vn 0.9643 0.0324 0.2629
vn 0.7413 0.6681 -0.0635
vn 0.6882 0.2682 -0.6741
vn 0.9377 0.2684 -0.2208
vn 0.5140 0.2113 -0.8314
vn 0.5460 0.1689 -0.8205
vn 0.6848 0.2700 -0.6769
vn 0.8245 0.3878 -0.4120
vn 0.9695 0.2443 -0.0201
vn 0.9728 0.2310 0.0195
vn 0.4579 0.1941 0.8676
vn 0.4921 0.2485 0.8343
vn 0.8892 0.0955 0.4473
vn 0.4618 0.5469 0.6983
vn 0.9026 0.1701 0.3955
vn 0.9955 0.0883 0.0341
vn -0.0210 0.3880 0.9214
vn -0.1472 0.1546 0.9769
vn 0.1095 0.1549 0.9819
vn -0.1629 0.2112 0.9638
vn 0.9984 0.0467 -0.0320
vn 0.8375 0.2400 -0.4909
vn 0.9420 0.1718 -0.2884
vn 0.9688 0.2477 0.0054
vn 0.9743 0.2190 -0.0525
vn 0.9613 0.1643 -0.2210
vn -0.3324 0.8036 0.4936
vn -0.0057 0.9998 0.0200
vt 0.366386 0.034233
vt 0.378183 0.046471
vt 0.335847 0.061490
vt 0.381799 0.053994
vt 0.351631 0.065184
vt 0.385091 0.062516
vt 0.347525 0.078413
vt 0.354978 0.026588
vt 0.271764 0.014066
vt 0.317831 0.019255
vt 0.270296 0.067825
vt 0.338336 0.023558
vt 0.318321 0.069981
vt 0.349198 0.094190
vt 0.424375 0.087705
vt 0.982111 0.293894
vt 0.981965 0.320787
vt 0.971844 0.320365
vt 0.971990 0.293471
vt 0.982057 0.336352
vt 0.983144 0.377735
vt 0.972038 0.379736
vt 0.971938 0.335974
vt 0.000000 0.042673
vt 0.107355 0.007849
vt 0.034208 0.080025
vt 0.934574 0.181725
vt 0.931356 0.206076
vt 0.852800 0.224794
vt 0.855167 0.204165
vt 0.600820 0.167275
vt 0.599402 0.200510
vt 0.573265 0.204871
vt 0.585313 0.176807
vt 0.154528 0.000000
vt 0.104370 0.040214
vt 0.193546 0.004928
vt 0.167436 0.026442
vt 0.720558 0.173024
vt 0.712107 0.165575
vt 0.722828 0.167464
vt 0.534827 0.195840
vt 0.539753 0.236423
vt 0.524548 0.211963
vt 0.080317 0.069081
vt 0.072646 0.068346
vt 0.723024 0.861418
vt 0.690274 0.824625
vt 0.724206 0.778113
vt 0.330432 0.021697
vt 0.982846 0.142326
vt 0.981891 0.175475
vt 0.973990 0.175469
vt 0.974945 0.142320
vt 0.214955 0.042514
vt 0.187350 0.043054
vt 0.222536 0.008677
vt 0.981828 0.273528
vt 0.971707 0.273106
vt 0.642284 0.155372
vt 0.629701 0.117339
vt 0.662371 0.048684
vt 0.651749 0.147850
vt 0.698950 0.157766
vt 0.688771 0.168993
vt 0.301623 0.099190
vt 0.642966 0.189615
vt 0.686603 0.158298
vt 0.673664 0.134662
vt 0.693667 0.151369
vt 0.706922 0.153810
vt 0.749027 0.117178
vt 0.764825 0.135505
vt 0.983027 0.116232
vt 0.975126 0.116226
vt 0.974681 0.089263
vt 0.982582 0.089270
vt 0.668421 0.148657
vt 0.557419 0.090774
vt 0.571253 0.082391
vt 0.575613 0.104379
vt 0.560802 0.137450
vt 0.646427 0.376141
vt 0.653214 0.293804
vt 0.682680 0.312157
vt 0.678859 0.375645
vt 0.697927 0.208013
vt 0.703916 0.218981
vt 0.981818 0.262654
vt 0.971764 0.262204
vt 0.973091 0.236039
vt 0.983144 0.236461
vt 0.322317 0.116353
vt 0.327885 0.138647
vt 0.876389 0.862648
vt 0.882613 0.861315
vt 0.882152 0.883192
vt 0.876389 0.883665
vt 0.687864 0.028672
vt 0.712983 0.000000
vt 0.743870 0.007754
vt 0.644634 0.027611
vt 0.658802 0.021070
vt 0.414765 0.219321
vt 0.353807 0.215235
vt 0.757581 0.015303
vt 0.972957 0.418179
vt 0.982705 0.424329
vt 0.165853 0.043473
vt 0.113393 0.057860
vt 0.797927 0.778114
vt 0.796116 0.804219
vt 0.787878 0.805508
vt 0.789440 0.779477
vt 0.892876 0.157931
vt 0.912000 0.158986
vt 0.459868 0.486478
vt 0.356127 0.487274
vt 0.376162 0.425111
vt 0.484751 0.399575
vt 0.256517 0.715292
vt 0.260316 0.705042
vt 0.309889 0.691618
vt 0.339637 0.725283
vt 0.687252 0.218672
vt 0.684126 0.204479
vt 0.847974 0.108958
vt 0.865398 0.122369
vt 0.852454 0.151279
vt 0.749660 0.190837
vt 0.677205 0.239947
vt 0.663477 0.236233
vt 0.668919 0.225342
vt 0.762077 0.236168
vt 0.762473 0.288093
vt 0.723704 0.287942
vt 0.713969 0.264232
vt 0.537072 0.756043
vt 0.534357 0.803297
vt 0.494188 0.801101
vt 0.497621 0.749571
vt 0.748339 0.206674
vt 0.752067 0.221900
vt 0.656716 0.417420
vt 0.686594 0.389030
vt 0.865007 0.751110
vt 0.876389 0.748471
vt 0.873507 0.831084
vt 0.851898 0.805386
vt 0.623222 0.209366
vt 0.746206 0.318324
vt 0.928289 0.409260
vt 0.851577 0.498382
vt 0.180842 0.850287
vt 0.148052 0.893779
vt 0.121257 0.871899
vt 0.723521 0.477409
vt 0.765590 0.523955
vt 0.694970 0.536040
vt 0.582049 0.237092
vt 0.596534 0.236195
vt 0.581011 0.252220
vt 0.546801 0.254396
vt 0.820912 0.548728
vt 0.014445 0.655612
vt 0.079937 0.650341
vt 0.131135 0.698624
vt 0.122760 0.770579
vt 0.863198 0.943401
vt 0.820206 0.952127
vt 0.806923 0.876983
vt 0.861232 0.869629
vt 0.876389 0.935307
vt 0.583741 0.224257
vt 0.638497 0.288407
vt 0.622958 0.293332
vt 0.624216 0.279938
vt 0.979208 0.631500
vt 0.977133 0.683085
vt 0.967877 0.685124
vt 0.969419 0.646780
vt 0.969952 0.633539
vt 0.544523 0.278822
vt 0.497442 0.304702
vt 0.493004 0.283620
vt 0.609380 0.262541
vt 0.617480 0.265133
vt 0.612501 0.274890
vt 0.600115 0.275728
vt 0.489133 0.264902
vt 0.570525 0.444120
vt 0.588138 0.386213
vt 0.650373 0.450868
vt 0.600219 0.467043
vt 0.774663 0.300694
vt 0.843860 0.311075
vt 0.713004 0.236692
vt 0.563192 0.309694
vt 0.555178 0.296985
vt 0.583120 0.291490
vt 0.586514 0.302879
vt 0.597739 0.221403
vt 0.379921 0.394754
vt 0.440106 0.380168
vt 0.481225 0.329007
vt 0.895335 0.263885
vt 0.388189 0.370977
vt 0.436857 0.369633
vt 0.990574 0.587800
vt 0.981993 0.586764
vt 0.979208 0.559899
vt 0.986042 0.560980
vt 0.914071 0.329118
vt 0.884336 0.762160
vt 0.884027 0.808192
vt 0.876389 0.812040
vt 0.876389 0.748471
vt 0.699165 0.233316
vt 0.479107 0.886168
vt 0.482416 0.978637
vt 0.474158 0.979521
vt 0.470720 0.887062
vt 0.414749 0.347133
vt 0.429779 0.339227
vt 0.385753 0.395343
vt 0.370007 0.439476
vt 0.316553 0.460060
vt 0.319096 0.451967
vt 0.983989 0.551997
vt 0.971707 0.532227
vt 0.983989 0.424329
vt 0.481481 0.305699
vt 0.906902 0.263119
vt 0.934574 0.458566
vt 0.911299 0.519668
vt 0.499538 0.314661
vt 0.511183 0.369983
vt 0.074686 0.834095
vt 0.136960 0.808907
vt 0.176598 0.827711
vt 0.611046 0.348323
vt 0.753370 0.307429
vt 0.639894 0.270244
vt 0.639896 0.278958
vt 0.628957 0.266021
vt 0.125468 0.603224
vt 0.158387 0.633989
vt 0.138774 0.650275
vt 0.114101 0.592601
vt 0.691304 0.408351
vt 0.671610 0.500796
vt 0.670829 0.543049
vt 0.586774 0.272003
vt 0.595354 0.290114
vt 0.647136 0.210652
vt 0.637891 0.226487
vt 0.607876 0.299796
vt 0.689548 0.284633
vt 0.611759 0.290513
vt 0.608788 0.283172
vt 0.205574 0.709673
vt 0.609614 0.052075
vt 0.699875 0.246248
vt 0.597303 0.261595
vt 0.679813 0.423533
vt 0.663262 0.451978
vt 0.674341 0.213036
vt 0.148015 0.714543
vt 0.724206 0.778113
vt 0.753991 0.778924
vt 0.757379 0.824944
vt 0.724520 0.843305
vt 0.634673 0.242912
vt 0.627730 0.255375
vt 0.617218 0.247438
vt 0.618891 0.230629
vt 0.656660 0.276712
vt 0.658002 0.257299
vt 0.675645 0.259850
vt 0.605914 0.250732
vt 0.638799 0.257393
vt 0.484751 0.244371
vt 0.648629 0.249163
vt 0.648491 0.262108
vt 0.672294 0.200408
vt 0.066420 0.874774
vt 0.656582 0.248475
vt 0.666371 0.810511
vt 0.602873 0.830887
vt 0.604593 0.808257
vt 0.663212 0.212473
vt 0.655884 0.240282
vt 0.663771 0.247249
vt 0.646668 0.236790
vt 0.654893 0.226943
vt 0.660207 0.198747
vt 0.761499 0.560504
vt 0.747586 0.650218
vt 0.719086 0.640866
vt 0.715101 0.559899
vt 0.562694 0.903806
vt 0.555398 0.951412
vt 0.528091 0.953967
vt 0.535381 0.906359
vt 0.694902 0.985138
vt 0.724206 0.984796
vt 0.790451 0.715271
vt 0.740340 0.732793
vt 0.787883 0.651634
vt 0.528091 0.880778
vt 0.569313 0.878984
vt 0.143383 0.986501
vt 0.114309 0.993107
vt 0.114309 0.945698
vt 0.144297 0.962240
vt 0.202271 0.983996
vt 0.217275 0.971642
vt 0.216862 0.990158
vt 0.378141 0.776641
vt 0.377934 0.917623
vt 0.350867 0.903827
vt 0.351469 0.770579
vt 0.666729 0.777314
vt 0.606539 0.765587
vt 0.938215 0.819556
vt 0.931627 0.864948
vt 0.926029 0.815087
vt 0.930933 0.781417
vt 0.690274 0.658465
vt 0.683792 0.677099
vt 0.613228 0.673796
vt 0.641367 0.660205
vt 0.608873 0.695307
vt 0.681717 0.698531
vt 0.565454 0.745277
vt 0.532033 0.739308
vt 0.534414 0.714706
vt 0.568550 0.713295
vt 0.498823 0.386532
vt 0.501748 0.419932
vt 0.611081 0.880562
vt 0.616190 0.943458
vt 0.569313 0.943458
vt 0.575120 0.878984
vt 0.885712 0.871243
vt 0.885712 0.818830
vt 0.114309 0.919176
vt 0.066420 0.946410
vt 0.066420 0.893779
vt 0.113881 0.896375
vt 0.975807 0.922183
vt 0.943657 0.919824
vt 0.930294 0.871243
vt 0.976644 0.871243
vt 0.989727 0.926967
vt 0.989727 0.974813
vt 0.971462 0.957300
vt 0.965464 0.922183
vt 0.413293 0.944992
vt 0.411211 0.986241
vt 0.378141 0.990333
vt 0.378141 0.942491
vt 0.114309 0.925970
vt 0.120079 0.895892
vt 0.161356 0.893779
vt 0.161356 0.945698
vt 0.493625 0.559899
vt 0.618442 0.616563
vt 0.609213 0.627905
vt 0.532221 0.619923
vt 0.484751 0.614651
vt 0.066420 0.787956
vt 0.123930 0.770579
vt 0.618985 0.878984
vt 0.658041 0.890382
vt 0.658041 0.947975
vt 0.616190 0.916677
vt 0.757379 0.948087
vt 0.790101 0.945454
vt 0.791322 0.954916
vt 0.758600 0.957549
vt 0.180842 0.919852
vt 0.202244 0.894989
vt 0.465791 0.770579
vt 0.470720 0.844042
vt 0.431099 0.844304
vt 0.429332 0.770801
vt 0.754451 0.778113
vt 0.798653 0.774487
vt 0.286460 0.874820
vt 0.290064 0.789361
vt 0.310419 0.796988
vt 0.297075 0.874949
vt 0.464621 0.970725
vt 0.429332 0.973440
vt 0.430125 0.965287
vt 0.429986 0.956376
vt 0.465622 0.958130
vt 0.201370 0.859204
vt 0.225102 0.770579
vt 0.230620 0.784527
vt 0.792781 0.989609
vt 0.757379 0.989348
vt 0.787878 0.895139
vt 0.787878 0.853265
vt 0.794213 0.861726
vt 0.327844 0.991654
vt 0.332531 0.981550
vt 0.876389 0.861315
vt 0.876389 0.812040
vt 0.882634 0.817289
vt 0.883819 0.853732
vt 0.228067 0.987765
vt 0.942935 0.056189
vt 0.942870 0.039071
vt 0.952815 0.038889
vt 0.952879 0.056007
vt 0.959384 0.238128
vt 0.969516 0.238090
vt 0.960761 0.287565
vt 0.950655 0.287506
vt 0.702498 0.003012
vt 0.961647 0.215292
vt 0.971707 0.215191
vt 0.947741 0.353261
vt 0.958277 0.349864
vt 0.773118 0.023844
vt 0.793936 0.035296
vt 0.958577 0.187748
vt 0.951621 0.140901
vt 0.961471 0.140706
vt 0.968596 0.187573
vt 0.980363 0.019660
vt 0.972443 0.019414
vt 0.971707 0.004018
vt 0.980518 0.000000
vt 0.979939 0.212361
vt 0.972216 0.209076
vt 0.973018 0.194320
vt 0.980919 0.194326
vt 0.982235 0.068273
vt 0.974306 0.067915
vt 0.429953 0.327320
vt 0.410623 0.289764
vt 0.091718 0.065888
vt 0.989790 0.612292
vt 0.981393 0.642096
vt 0.979208 0.656801
vt 0.980546 0.611290
vt 0.391157 0.262554
vt 0.168670 0.942474
vt 0.169585 0.896129
vt 0.179195 0.893779
vt 0.179195 0.939381
vt 0.971860 0.215634
vt 0.948977 0.123657
vt 0.944530 0.100323
vt 0.954378 0.100765
vt 0.958754 0.126529
vt 0.956117 0.426296
vt 0.945321 0.434448
vt 0.957761 0.358143
vt 0.342023 0.202680
vt 0.322202 0.138002
vt 0.684732 0.013628
vt 0.799556 0.051536
vt 0.813874 0.085207
vt 0.776669 0.096217
vt 0.240133 0.049659
vt 0.250478 0.011985
vt 0.939437 0.022901
vt 0.936854 0.010839
vt 0.946770 0.010653
vt 0.949353 0.022718
vt 0.688026 0.878984
vt 0.688026 0.894245
vt 0.680010 0.896005
vt 0.680079 0.879220
vt 0.795986 0.840505
vt 0.788354 0.841613
vt 0.797927 0.852222
vt 0.790616 0.853265
vt 0.331674 0.390507
vt 0.373440 0.344404
vt 0.412788 0.346667
vt 0.391882 0.371264
vt 0.286370 0.083531
vt 0.934574 0.000183
vt 0.944490 -0.000000
vt 0.542192 0.096387
vt 0.161356 0.942688
vt 0.166071 0.898902
vt 0.317559 0.784683
vt 0.324889 0.772328
vt 0.332531 0.770579
vt 0.569313 0.952359
vt 0.581007 0.950568
vt 0.569313 0.988907
vt 0.600367 0.944651
vt 0.586761 0.985616
vt 0.979576 0.236039
vt 0.971707 0.232455
vt 0.077959 0.108594
vt 0.096238 0.064483
vt 0.113211 0.058136
vt 0.116034 0.095304
vt 0.159430 0.082364
vt 0.165538 0.043845
vt 0.174997 0.080745
vt 0.187454 0.043123
vt 0.201939 0.082123
vt 0.215058 0.042584
vt 0.240236 0.049729
vt 0.233110 0.078382
vt 0.222189 0.077848
vt 0.270399 0.067895
vt 0.259780 0.095761
vt 0.286474 0.083601
vt 0.270303 0.107348
vt 0.282223 0.120473
vt 0.298953 0.096413
vt 0.304499 0.102107
vt 0.318714 0.116704
vt 0.298197 0.138062
vt 0.298241 0.155247
vt 0.300703 0.191723
vt 0.394699 0.262695
vt 0.304589 0.200712
vt 0.413319 0.289800
vt 0.324702 0.228282
vt 0.430596 0.327103
vt 0.369892 0.293398
vt 0.337220 0.243578
vt 0.384050 0.322323
vt 0.429348 0.338907
vt 0.307824 0.527722
vt 0.351438 0.493130
vt 0.397679 0.512167
vt 0.343249 0.509072
vt 0.487555 0.916033
vt 0.528091 0.878984
vt 0.528091 0.958632
vt 0.484751 0.951795
vt 0.338539 0.602657
vt 0.295160 0.585601
vt 0.965634 0.666228
vt 0.966941 0.723893
vt 0.958978 0.722324
vt 0.957670 0.664658
vt 0.336259 0.601292
vt 0.374091 0.566179
vt 0.780334 0.780654
vt 0.787878 0.940445
vt 0.757379 0.945454
vt 0.757379 0.778113
vt 0.885712 0.583718
vt 0.877112 0.629608
vt 0.846066 0.645192
vt 0.846589 0.571803
vt 0.966035 0.740332
vt 0.963286 0.790190
vt 0.955323 0.788620
vt 0.958072 0.738762
vt 0.000000 0.623669
vt 0.027636 0.629956
vt 0.962577 0.561469
vt 0.964390 0.611385
vt 0.956427 0.609815
vt 0.954614 0.559899
vt 0.845860 0.559899
vt 0.976198 0.706347
vt 0.966941 0.708386
vt 0.311748 0.692931
vt 0.280329 0.657374
vt 0.253313 0.635840
vt 0.149874 0.715855
vt 0.132994 0.699937
vt 0.178358 0.652652
vt 0.262175 0.706355
vt 0.081796 0.651654
vt 0.207433 0.710986
vt 0.943333 0.483798
vt 0.952731 0.485027
vt 0.963741 0.930657
vt 0.965464 0.978591
vt 0.930294 0.974594
vt 0.930294 0.922183
vt 0.052863 0.582282
vt 0.036722 0.632162
vt 0.979208 0.776517
vt 0.969952 0.778556
vt 0.962629 0.841910
vt 0.954614 0.833141
vt 0.978422 0.559899
vt 0.969299 0.571465
vt 0.934574 0.537400
vt 0.943972 0.538629
vt 0.482416 0.793751
vt 0.471589 0.776794
vt 0.907009 0.769974
vt 0.910092 0.781417
vt 0.885712 0.766958
vt 0.907039 0.731910
vt 0.023851 0.819016
vt 0.000000 0.784250
vt 0.021008 0.770579
vt 0.017440 0.781213
vt 0.380099 0.817356
vt 0.379311 0.779407
vt 0.428948 0.781514
vt 0.426454 0.818136
vt 0.378141 0.770579
vt 0.429332 0.771298
vt 0.041508 0.579786
vt 0.472844 0.770579
vt 0.658041 0.965760
vt 0.658041 0.909509
vt 0.679961 0.878984
vt 0.680010 0.957366
vt 0.037704 0.968048
vt 0.035453 0.979910
vt 0.000000 1.000000
vt 0.000406 0.995429
vt 0.949543 0.608982
vt 0.954614 0.616930
vt 0.946858 0.619513
vt 0.954014 0.626264
vt 0.065467 0.923683
vt 0.066420 0.933832
vt 0.057907 0.936237
vt 0.062787 0.943413
vt 0.383797 0.930057
vt 0.429332 0.933319
vt 0.429050 0.942491
vt 0.384465 0.939949
vt 0.885712 0.871243
vt 0.930294 0.871243
vt 0.929435 0.879498
vt 0.886988 0.879352
vt 0.887100 0.565759
vt 0.885712 0.559899
vt 0.920134 0.958654
vt 0.893624 0.921488
vt 0.037550 0.882805
vt 0.016617 0.827862
vt 0.482416 0.770579
vt 0.483333 0.776809
vt 0.482416 0.782542
vt 0.606081 0.943458
vt 0.230620 0.995700
vt 0.680737 0.708655
vt 0.675293 0.764895
vt 0.628574 0.754311
vt 0.632436 0.714419
vt 0.488697 0.687393
vt 0.534495 0.690189
vt 0.490893 0.664707
vt 0.536663 0.667795
vt 0.688231 0.637247
vt 0.574099 0.655964
vt 0.540161 0.655330
vt 0.820431 0.091806
vt 0.943638 0.092328
vt 0.953521 0.092139
vt 0.551690 0.176971
vt 0.718108 0.776292
vt 0.703606 0.772672
vt 0.690274 0.770486
vt 0.698117 0.700280
vt 0.715695 0.704126
vt 0.378141 0.988104
vt 0.336077 0.976171
vt 0.332531 0.896783
vt 0.785268 0.559899
vt 0.798653 0.559899
vt 0.801223 0.643530
vt 0.233426 0.836738
vt 0.277213 0.836017
vt 0.272087 0.898543
vt 0.233241 0.902788
vt 0.230620 0.770579
vt 0.286460 0.771536
vt 0.538706 0.842243
vt 0.260967 0.956219
vt 0.230620 0.957968
vt 0.484751 0.878984
vt 0.752657 0.891310
vt 0.724206 0.905558
vt 0.798653 0.810748
vt 0.814127 0.764622
vt 0.876389 0.880707
vt 0.755596 0.967563
vt 0.866277 0.687421
vt 0.852799 0.688411
vt 0.798653 0.693364
vt 0.855741 0.743643
vt 0.798653 0.748471
s 0
usemtl groundtexture
f 7/1/1 3/2/1 38/3/1
f 3/2/1 6/4/1 2/5/1
f 6/4/1 4/6/1 42/7/1
f 178/8/1 7/1/1 38/3/1
f 2/5/1 6/4/1 42/7/1
f 3/2/1 2/5/1 38/3/1
f 8/9/1 43/10/1 247/11/1
f 1/12/1 38/3/1 46/13/1
f 52/14/1 42/7/1 5/15/1
f 228/16/2 239/17/2 283/18/2 282/19/2
f 224/20/3 221/21/3 268/22/3 275/23/3
f 179/24/4 12/25/4 22/26/4
f 229/27/5 238/28/5 55/29/5 53/30/5
f 106/31/6 107/32/6 60/33/6 10/34/6
f 17/35/7 20/36/7 12/25/7
f 44/37/1 18/38/1 17/35/1
f 75/39/8 32/40/8 378/41/8
f 13/42/1 60/33/1 117/43/1 81/44/1
f 12/25/9 20/36/9 246/45/9 216/46/9
f 20/36/1 17/35/1 18/38/1
f 12/25/1 216/46/1 22/26/1
f 26/47/10 179/48/10 22/49/10
f 9/50/1 1/12/1 46/13/1
f 240/51/11 247/52/11 286/53/11 289/54/11
f 253/55/1 254/56/1 44/37/1 19/57/1
f 225/58/12 228/16/12 282/19/12 281/59/12
f 64/60/13 37/61/13 27/62/13 35/63/13
f 29/64/14 32/40/14 30/65/14
f 42/7/1 250/66/1 46/13/1
f 64/60/15 35/63/15 36/67/15
f 29/64/16 176/68/16 40/69/16 33/70/16
f 39/71/1 51/72/1 379/73/1 378/41/1
f 253/74/17 287/75/17 290/76/17 254/77/17
f 176/68/18 31/78/18 40/69/18
f 305/79/19 220/80/19 15/81/19 24/82/19
f 31/78/20 36/67/20 35/63/20
f 120/83/21 109/84/21 68/85/21 90/86/21
f 159/87/22 32/40/22 75/39/22 149/88/22
f 219/89/23 269/90/23 265/91/23 235/92/23
f 42/7/24 52/14/24 350/93/24 250/66/24
f 46/13/1 38/3/1 2/5/1
f 52/14/25 5/15/25 242/94/25 350/93/25
f 42/7/1 46/13/1 2/5/1
f 294/95/26 350/96/26 242/97/26 292/98/26
f 28/99/27 31/78/27 35/63/27 27/62/27
f 32/40/28 29/64/28 378/41/28
f 40/69/29 219/100/29 235/101/29 33/70/29
f 42/7/1 4/6/1 5/15/1
f 38/3/1 1/12/1 178/8/1
f 37/61/30 224/102/30 239/103/30 27/62/30
f 45/104/1 256/105/1 242/94/1 5/15/1
f 230/106/31 39/71/31 33/70/31 235/101/31
f 261/107/32 268/22/32 221/21/32 220/108/32
f 18/38/1 252/109/1 249/110/1 20/36/1
f 176/68/33 29/64/33 30/65/33
f 244/111/34 245/112/34 299/113/34 284/114/34
f 74/115/35 234/116/35 229/27/35 53/30/35
f 258/117/36 348/118/36 349/119/36 257/120/36
f 65/121/1 309/122/1 310/123/1 177/124/1
f 156/125/37 158/126/37 159/87/37 149/88/37
f 236/127/1 218/128/1 61/129/1 171/130/1 75/39/1 378/41/1
f 156/125/38 163/131/38 168/132/38 164/133/38
f 58/134/39 50/135/39 115/136/39 113/137/39
f 377/138/40 362/139/40 116/140/40 193/141/40
f 113/137/41 86/142/41 145/143/41
f 96/144/42 120/83/42 90/86/42 93/145/42
f 119/146/43 47/147/43 391/148/43 390/149/43
f 64/60/44 36/67/44 152/150/44 106/31/44
f 70/151/45 102/152/45 123/153/45
f 73/154/46 87/155/46 62/156/46
f 91/157/47 313/158/47 320/159/47
f 92/160/48 103/161/48 97/162/48 94/163/48
f 123/153/49 321/164/49 313/158/49 91/157/49
f 98/165/1 312/166/1 317/167/1 101/168/1
f 173/169/50 126/170/50 392/171/50 393/172/50 73/173/50
f 94/163/51 117/43/51 111/174/51 92/160/51
f 139/175/52 120/83/52 110/176/52 147/177/52
f 74/115/1 53/30/1 145/143/1 86/142/1
f 313/178/53 321/179/53 329/180/53 343/181/53 327/182/53
f 54/183/54 121/184/54 69/185/54
f 174/186/55 130/187/55 132/188/55 89/189/55
f 94/163/56 54/183/56 69/185/56 104/190/56
f 114/191/1 78/192/1 119/193/1 48/194/1
f 82/195/57 41/196/57 102/152/57
f 172/197/58 171/130/58 86/142/58
f 105/198/59 112/199/59 83/200/59 99/201/59
f 149/88/60 75/39/60 171/130/60
f 103/161/61 92/160/61 111/174/61 67/202/61
f 257/120/62 259/203/62 66/204/62 128/205/62
f 50/135/63 85/206/63 41/196/63 82/195/63
f 243/207/1 59/208/1 66/204/1 259/203/1
f 53/30/1 55/29/1 58/134/1 145/143/1
f 243/209/64 293/210/64 298/211/64 255/212/64
f 227/213/65 41/196/65 85/206/65
f 256/214/66 244/215/66 284/216/66 296/217/66
f 172/197/67 157/218/67 171/130/67
f 311/219/68 310/220/68 333/221/68 330/222/68
f 59/208/1 255/223/1 241/224/1 66/204/1
f 302/225/1 304/226/1 270/227/1 272/228/1
f 171/130/1 61/129/1 74/115/1 86/142/1
f 139/175/69 109/84/69 120/83/69
f 128/229/70 127/230/70 45/231/70
f 66/204/1 127/232/1 128/205/1
f 231/233/71 227/213/71 85/206/71
f 145/143/72 58/134/72 113/137/72
f 123/153/73 102/152/73 322/234/73 323/235/73
f 54/183/74 112/199/74 72/236/74 121/184/74
f 112/199/75 105/198/75 124/237/75 72/236/75
f 63/238/76 126/239/76 173/240/76
f 56/241/77 105/198/77 99/201/77
f 50/135/78 82/195/78 125/242/78 115/136/78
f 143/243/1 144/244/1 147/177/1 129/245/1
f 343/246/1 329/247/1 328/248/1 327/249/1
f 123/153/79 88/250/79 70/151/79
f 95/251/80 91/157/80 320/159/80 315/252/80
f 83/200/81 108/253/81 118/254/81 99/201/81
f 36/67/82 154/255/82 166/256/82 152/150/82
f 118/254/83 100/257/83 99/201/83
f 113/137/84 115/136/84 137/258/84
f 140/259/85 141/260/85 147/177/85 110/176/85
f 56/241/86 120/83/86 96/144/86 119/193/86
f 101/168/1 308/261/1 309/122/1 65/121/1
f 78/192/87 105/198/87 56/241/87
f 70/151/1 125/242/1 102/152/1
f 56/241/88 100/257/88 120/83/88
f 89/189/89 141/260/89 118/254/89
f 68/85/90 125/242/90 70/151/90 90/86/90
f 220/80/91 221/262/91 37/61/91 106/31/91 10/34/91 15/81/91
f 86/142/92 113/137/92 80/263/92 172/197/92
f 141/260/93 140/259/93 100/257/93 118/254/93
f 132/188/94 130/187/94 129/245/94 147/177/94
f 77/264/95 108/253/95 97/162/95
f 78/192/96 56/241/96 119/193/96
f 96/144/97 93/145/97 122/265/97 47/266/97
f 100/257/98 56/241/98 99/201/98
f 148/267/99 158/126/99 156/125/99 164/133/99
f 101/168/1 314/268/1 308/261/1
f 114/269/100 48/270/100 389/271/100 385/272/100
f 62/156/101 63/238/101 173/240/101
f 47/266/1 119/193/1 96/144/1
f 153/273/1 133/274/1 135/275/1 134/276/1
f 137/258/102 146/277/102 142/278/102 138/279/102
f 112/199/103 54/183/103 108/253/103 83/200/103
f 141/260/104 89/189/104 132/188/104 147/177/104
f 103/161/1 134/276/1 135/275/1 136/280/1
f 120/83/105 100/257/105 140/259/105 110/176/105
f 133/274/1 129/245/1 130/187/1 135/275/1
f 68/85/106 109/84/106 146/277/106 137/258/106
f 146/277/107 109/84/107 139/175/107 144/244/107
f 143/243/1 129/245/1 133/274/1 131/281/1
f 134/276/108 103/161/108 67/202/108 152/150/108
f 104/190/109 175/282/109 81/44/109
f 134/276/1 152/150/1 166/256/1 153/273/1
f 136/280/1 174/186/1 77/264/1
f 165/283/1 131/281/1 133/274/1 153/273/1
f 89/189/110 108/253/110 77/264/110 174/186/110
f 82/195/1 102/152/1 125/242/1
f 142/278/1 146/277/1 143/243/1 167/284/1
f 113/137/111 138/279/111 80/263/111
f 113/137/112 137/258/112 138/279/112
f 162/285/113 30/65/113 158/126/113 148/267/113
f 143/243/1 146/277/1 144/244/1
f 147/177/114 144/244/114 139/175/114
f 131/281/1 165/283/1 167/284/1 143/243/1
f 89/189/115 118/254/115 108/253/115
f 63/238/116 62/156/116 84/286/116
f 136/280/117 77/264/117 97/162/117 103/161/117
f 142/278/1 167/284/1 165/283/1 161/287/1
f 101/168/1 317/167/1 314/268/1
f 49/288/118 386/289/118 363/290/118
f 114/191/119 124/237/119 105/198/119 78/192/119
f 50/135/120 58/134/120 55/29/120 85/206/120
f 173/240/121 73/154/121 62/156/121
f 148/267/122 164/133/122 169/291/122 162/285/122
f 163/131/123 156/125/123 149/88/123 157/218/123
f 80/263/124 138/279/124 163/131/124 157/218/124
f 80/263/125 157/218/125 172/197/125
f 115/136/126 125/242/126 68/85/126 137/258/126
f 151/292/1 168/132/1 160/293/1 161/287/1 165/283/1
f 151/292/1 155/294/1 170/295/1 168/132/1
f 165/283/1 153/273/1 155/294/1 151/292/1
f 160/293/127 138/279/127 142/278/127 161/287/127
f 174/186/1 136/280/1 135/275/1 130/187/1
f 163/131/128 138/279/128 160/293/128 168/132/128
f 106/31/129 152/150/129 67/202/129 107/32/129
f 169/291/130 164/133/130 168/132/130 170/295/130 154/255/130
f 36/67/131 31/78/131 176/68/131 150/296/131
f 166/256/132 154/255/132 170/295/132
f 176/68/133 30/65/133 162/285/133 169/291/133 150/296/133
f 149/88/134 171/130/134 157/218/134
f 158/126/135 32/40/135 159/87/135
f 32/40/136 158/126/136 30/65/136
f 180/297/137 384/298/137 16/299/137 14/300/137
f 180/301/138 14/302/138 181/303/138 182/304/138
f 183/305/139 179/48/139 26/47/139 215/306/139
f 25/307/140 23/308/140 384/298/140 383/309/140
f 184/310/141 212/311/141 180/301/141 182/304/141
f 183/312/142 215/313/142 185/314/142 186/315/142
f 204/316/143 210/317/143 305/318/143
f 14/319/144 381/320/144 380/321/144 181/322/144
f 71/323/145 49/288/145 363/290/145 376/324/145
f 369/325/146 189/326/146 187/327/146 365/328/146
f 104/329/147 69/330/147 368/331/147 364/332/147
f 370/333/148 368/331/148 69/330/148 121/334/148
f 375/335/149 192/336/149 191/337/149 373/338/149
f 71/339/150 124/237/150 114/191/150 49/340/150
f 377/138/151 193/141/151 192/336/151 375/335/151
f 188/341/152 187/342/152 194/343/152 195/344/152
f 189/326/153 196/345/153 194/346/153 187/327/153
f 190/347/1 197/348/1 196/349/1 189/350/1
f 191/351/154 198/352/154 197/353/154 190/354/154
f 192/355/155 199/356/155 198/357/155 191/358/155
f 193/359/156 200/360/156 199/361/156 192/362/156
f 201/363/1 200/364/1 193/365/1 116/366/1
f 181/367/157 380/368/157 366/369/157 367/370/157 188/371/157
f 202/372/158 57/373/158 126/239/158 63/238/158
f 203/374/159 181/375/159 188/376/159 195/377/159
f 184/378/160 185/379/160 209/380/160 208/381/160
f 204/316/161 25/382/161 207/383/161 210/317/161
f 210/384/162 207/385/162 205/386/162 206/387/162
f 24/388/163 25/307/163 204/389/163
f 26/390/164 22/391/164 206/392/164 205/393/164
f 212/394/165 214/395/165 215/396/165
f 212/394/166 215/396/166 213/397/166 211/398/166
f 25/382/167 383/399/167 212/400/167 211/401/167 207/383/167
f 213/397/168 205/386/168 207/385/168 211/398/168
f 214/402/169 212/403/169 208/381/169 209/380/169
f 212/404/170 184/405/170 208/406/170
f 215/407/171 26/390/171 205/393/171 213/408/171
f 185/409/172 215/410/172 214/411/172 209/412/172
f 360/413/173 305/318/173 210/317/173
f 155/294/1 153/273/1 166/256/1 170/295/1
f 94/163/174 97/162/174 108/253/174 54/183/174
f 237/414/175 223/415/175 278/416/175 266/417/175
f 238/418/176 267/419/176 279/420/176 231/421/176
f 31/78/177 28/99/177 225/422/177 219/100/177 40/69/177
f 102/152/178 41/196/178 227/213/178
f 29/64/179 33/70/179 39/71/179 378/41/179
f 229/423/180 274/424/180 267/419/180 238/418/180
f 227/425/181 231/421/181 279/420/181 272/426/181
f 226/427/182 223/428/182 51/72/182
f 234/429/183 218/430/183 264/431/183 277/432/183
f 249/433/184 285/434/184 260/435/184 217/436/184
f 250/437/185 288/438/185 301/439/185 248/440/185
f 252/441/186 254/77/186 290/76/186 291/442/186
f 251/443/1 245/444/1 127/232/1 66/204/1
f 241/224/1 251/443/1 66/204/1
f 247/52/187 248/440/187 301/439/187 286/53/187
f 249/110/188 217/445/188 20/36/188
f 259/446/189 349/447/189 304/448/189 302/449/189
f 244/450/1 256/105/1 45/104/1 127/232/1
f 220/451/190 217/452/190 260/453/190 261/454/190
f 244/450/1 127/232/1 245/444/1
f 37/61/191 64/60/191 106/31/191
f 250/437/185 295/455/185 288/438/185
f 236/456/192 232/457/192 273/458/192 263/459/192
f 262/460/193 102/461/193 227/425/193 270/462/193
f 242/94/194 256/105/194 296/463/194 292/464/194
f 253/74/195 240/51/195 289/54/195 287/75/195
f 225/422/196 28/99/196 228/465/196
f 237/466/197 233/467/197 34/468/197
f 247/11/1 240/469/1 21/470/1 8/9/1
f 226/471/198 230/472/198 271/473/198 276/474/198
f 241/475/199 255/476/199 298/477/199 297/478/199
f 245/112/200 251/479/200 300/480/200 299/113/200
f 219/89/201 225/58/201 281/59/201 269/90/201
f 251/479/202 241/481/202 297/482/202 300/480/202
f 279/483/1 267/484/1 298/485/1 293/486/1
f 254/56/1 252/109/1 18/38/1 44/37/1
f 239/103/203 228/465/203 28/99/203 27/62/203
f 227/425/204 272/426/204 270/462/204
f 250/66/1 248/487/1 9/50/1 46/13/1
f 223/428/205 237/466/205 34/468/205 51/72/205
f 230/472/206 235/488/206 265/489/206 271/473/206
f 248/487/1 247/11/1 43/10/1 9/50/1
f 221/262/207 224/102/207 37/61/207
f 238/28/208 231/233/208 85/206/208 55/29/208
f 249/433/209 252/441/209 291/442/209 285/434/209
f 239/17/210 224/20/210 275/23/210 283/18/210
f 218/128/211 234/116/211 74/115/211 61/129/211
f 243/209/212 259/446/212 302/449/212 293/210/212
f 229/423/213 234/429/213 277/432/213 274/424/213
f 223/415/214 226/471/214 276/474/214 278/416/214
f 218/430/215 236/456/215 263/459/215 264/431/215
f 302/225/1 272/228/1 279/483/1 293/486/1
f 217/445/216 246/45/216 20/36/216
f 204/490/217 305/79/217 24/82/217
f 217/452/218 220/451/218 360/491/218 361/492/218
f 306/493/219 216/494/219 246/495/219
f 306/493/220 206/392/220 22/391/220 216/494/220
f 206/496/221 306/497/221 210/498/221
f 306/497/222 246/499/222 360/500/222 210/498/222
f 240/469/1 253/55/1 19/57/1 21/470/1
f 350/501/223 294/502/223 295/455/223 250/437/223
f 261/503/224 260/504/224 285/505/224 268/506/224
f 275/507/225 268/506/225 285/505/225 291/508/225
f 283/509/1 275/507/1 291/508/1 290/510/1
f 282/511/1 283/509/1 290/510/1 287/512/1
f 289/513/1 269/514/1 281/515/1 287/512/1
f 281/515/1 282/511/1 287/512/1
f 286/516/1 265/517/1 269/514/1 289/513/1
f 301/518/1 271/519/1 265/517/1 286/516/1
f 276/520/1 271/519/1 301/518/1 288/521/1
f 295/522/1 276/520/1 288/521/1
f 295/522/226 294/523/226 278/524/226 276/520/226
f 266/525/227 278/524/227 294/523/227 292/464/227
f 280/526/1 266/525/1 292/464/1 296/463/1
f 284/527/1 273/528/1 280/526/1 296/463/1
f 299/529/1 263/530/1 273/528/1 284/527/1
f 263/530/1 299/529/1 300/531/1 277/532/1 264/533/1
f 274/534/1 277/532/1 300/531/1 297/535/1
f 267/484/1 274/534/1 297/535/1 298/485/1
f 243/207/1 255/223/1 59/208/1
f 262/536/1 270/227/1 304/226/1 303/537/1
f 79/538/228 222/539/228 348/118/228
f 62/540/229 84/541/229 318/542/229 87/543/229
f 330/544/230 331/545/230 262/536/230 303/537/230
f 308/546/231 314/547/231 340/548/231 332/549/231
f 310/123/1 311/550/1 76/551/1 177/124/1
f 318/552/232 316/553/232 98/554/232 307/555/232
f 315/556/233 396/557/233 395/558/233 95/559/233
f 317/560/234 312/561/234 334/562/234 337/563/234
f 316/564/235 319/565/235 98/165/235
f 310/566/236 309/567/236 325/568/236 333/569/236
f 91/157/1 122/265/1 93/145/1 88/250/1
f 319/565/1 312/166/1 98/165/1
f 323/235/237 324/570/237 123/153/237
f 309/567/231 308/546/231 332/549/231 325/568/231
f 314/547/234 317/560/234 337/563/234 340/548/234
f 324/570/238 321/164/238 123/153/238
f 321/179/53 324/571/53 342/572/53 329/180/53
f 331/545/1 330/544/1 333/573/1 326/574/1 341/575/1
f 340/576/1 337/577/1 328/248/1 329/247/1 342/578/1
f 333/573/1 325/579/1 326/574/1
f 337/577/1 334/580/1 328/248/1
f 332/581/1 340/576/1 342/578/1 341/575/1 326/574/1
f 322/582/239 102/461/239 262/460/239 331/583/239
f 325/579/1 332/581/1 326/574/1
f 335/584/70 336/585/70 338/586/70 339/587/70
f 339/588/1 327/249/1 328/248/1 334/580/1 338/589/1
f 324/571/240 323/590/240 341/591/240 342/572/240
f 312/561/241 319/592/241 338/593/241 334/562/241
f 320/594/242 313/178/242 327/182/242 339/595/242
f 323/596/243 322/582/243 331/583/243 341/597/243
f 222/598/244 311/219/244 330/222/244 303/599/244
f 123/153/1 91/157/1 88/250/1
f 311/550/245 222/539/245 79/538/245 76/551/245
f 346/600/246 319/601/246 316/602/246 345/603/246
f 344/604/247 315/605/247 320/606/247 347/607/247
f 344/608/248 347/609/248 346/610/248 345/611/248
f 347/609/249 320/612/249 319/613/249 346/610/249
f 339/588/250 338/589/250 319/565/250 320/614/250
f 79/538/251 348/118/251 258/117/251
f 349/119/252 348/118/252 303/537/252 304/226/252
f 349/119/253 259/203/253 257/120/253
f 348/615/254 222/598/254 303/599/254
f 51/72/1 39/71/1 230/106/1 226/427/1
f 117/43/1 94/163/1 104/190/1 81/44/1
f 47/266/255 122/265/255 91/157/255 95/251/255
f 154/255/256 36/67/256 150/296/256 169/291/256
f 307/616/257 351/617/257 84/618/257 318/619/257
f 62/620/258 353/621/258 352/622/258 84/623/258
f 354/624/259 356/625/259 318/626/259
f 356/625/260 355/627/260 318/626/260
f 357/628/261 359/629/261 87/630/261
f 359/629/262 358/631/262 87/630/262
f 357/632/263 355/633/263 356/634/263 359/635/263
f 359/636/264 356/637/264 354/638/264 358/639/264
f 318/626/265 84/640/265 352/641/265 354/624/265
f 316/602/266 318/626/266 355/627/266 345/603/266
f 357/632/267 344/608/267 345/611/267 355/633/267
f 354/638/268 352/642/268 353/643/268 358/639/268
f 87/630/269 397/644/269 396/645/269 315/605/269 344/604/269 357/628/269
f 87/630/270 358/631/270 353/621/270 62/620/270
f 217/646/271 361/647/271 246/648/271
f 360/500/272 246/499/272 361/649/272
f 360/413/273 220/650/273 305/318/273
f 72/651/274 124/652/274 374/653/274 372/654/274
f 376/324/275 377/138/275 375/335/275 374/653/275
f 372/654/276 370/333/276 121/334/276 72/651/276
f 374/653/277 375/335/277 373/338/277 372/654/277
f 191/337/278 190/655/278 371/656/278 373/338/278
f 373/338/279 371/656/279 370/333/279 372/654/279
f 190/655/280 189/657/280 369/658/280 371/656/280
f 371/656/281 369/658/281 368/331/281 370/333/281
f 366/369/282 175/659/282 104/329/282 364/332/282
f 368/331/283 369/658/283 365/660/283 364/332/283
f 188/371/284 367/370/284 365/660/284 187/661/284
f 367/370/285 366/369/285 364/332/285 365/660/285
f 376/324/286 363/290/286 362/139/286 377/138/286
f 378/41/1 379/73/1 232/662/1 236/127/1
f 232/457/287 233/663/287 237/414/287 266/417/287 280/664/287 273/458/287
f 51/72/1 34/468/1 233/467/1 232/662/1 379/73/1
f 10/34/1 60/33/1 13/42/1 11/665/1
f 23/308/288 25/307/288 24/388/288 11/666/288
f 24/82/1 15/81/1 10/34/1 11/665/1
f 13/667/289 81/668/289 381/669/289 382/670/289
f 384/298/290 23/308/290 382/670/290 16/299/290
f 381/320/291 81/671/291 175/672/291 380/321/291
f 380/321/292 175/672/292 366/673/292
f 381/669/293 14/300/293 16/299/293 382/670/293
f 23/308/294 11/666/294 13/667/294 382/670/294
f 384/298/295 180/297/295 212/674/295 383/309/295
f 47/675/296 95/559/296 395/558/296 391/676/296
f 386/677/297 385/678/297 388/679/297 387/680/297
f 49/681/298 114/682/298 385/678/298 386/677/298
f 386/289/299 387/683/299 362/139/299 363/290/299
f 388/679/300 126/684/300 57/685/300 387/680/300
f 387/683/301 57/686/301 116/140/301 362/139/301
f 389/271/302 392/687/302 388/688/302 385/272/302
f 389/689/303 48/690/303 119/146/303 390/149/303
f 391/148/304 394/691/304 393/172/304 390/149/304
f 392/171/305 389/689/305 390/149/305 393/172/305
f 394/691/306 73/173/306 393/172/306
f 392/687/307 126/692/307 388/688/307
f 124/652/308 71/323/308 376/324/308 374/653/308
f 396/557/309 397/693/309 398/694/309 395/558/309
f 395/558/310 398/694/310 394/695/310 391/676/310
f 398/694/311 87/696/311 73/697/311 394/695/311
f 397/693/312 87/696/312 398/694/312
f 60/33/313 107/32/313 67/202/313 111/174/313 117/43/313
f 93/145/314 90/86/314 70/151/314 88/250/314
